<svg viewBox="0 0 100.34 100.34" xmlns="http://www.w3.org/2000/svg">
  <g fill="#8A61B9" transform="matrix(.34923 0 0 .34923 -2.282 -2.195)">
    <defs>
      <path id="a" d="M7 6.5h286v287.1H7z" />
    </defs>
    <clipPath id="b">
      <use href="#a" overflow="visible" />
    </clipPath>
    <g style="clip-path: url(#b)">
      <path d="M150 198.8c26.1 0 47.2 21.2 47.2 47.4s-21.1 47.4-47.2 47.4-47.2-21.2-47.2-47.4 21.1-47.4 47.2-47.4zM198.7 152.9c-.1-1.1-.1-2.2-.1-3.3.1-12.4-4.5-24.4-13.3-33.2l-2-2c-8.7-8.7-20.5-13.4-32.8-13.3h-1.4c-12.3-.2-24.1 4.6-32.8 13.3l-2 2c-8.8 8.8-13.3 20.8-13.3 33.2 0 1.1 0 2.2-.1 3.3-1.3 23.3-19.8 42.4-43.1 44.3-29.3 2.5-53.5-21.9-51.1-51.3 1.9-23.3 21-41.8 44.1-43.2 1-.1 2.2-.1 3.2-.1 12.4.1 24.3-4.5 33.1-13.3l2-2c8.8-8.8 13.3-20.8 13.3-33.2 0-1.6.1-3.3.2-4.9 2.1-22.9 20.8-41.1 43.7-42.8C174 4.5 197 26.4 197 53.6v.7c-.2 12.3 4.6 24.2 13.3 32.9l2 2c8.8 8.8 20.7 13.4 33.1 13.3 1 0 2.1 0 3.2.1 23.3 1.3 42.2 19.9 44.1 43.2 2.5 29.4-21.8 53.7-51.1 51.3-23.1-1.8-41.5-21-42.9-44.2zM101.3 147.1c.1 1.1.1 2.2.1 3.3-.1 12.4 4.5 24.4 13.3 33.2l2 2c8.7 8.7 20.5 13.4 32.8 13.3h1.4c12.3.2 24.1-4.6 32.8-13.3l2-2c8.8-8.8 13.3-20.8 13.3-33.2 0-1.1 0-2.2.1-3.3 1.3-23.3 19.8-42.4 43.1-44.3 29.3-2.5 53.5 21.9 51.1 51.3-1.9 23.3-21 41.8-44.1 43.2-1 .1-2.2.1-3.2.1-12.4-.1-24.3 4.5-33.1 13.3l-2 2c-8.8 8.8-13.3 20.8-13.3 33.2 0 1.6-.1 3.3-.2 4.9-2.1 22.9-20.8 41.1-43.7 42.8C126 295.5 103 273.6 103 246.4v-.7c.2-12.3-4.6-24.2-13.3-32.9l-2-2c-8.8-8.8-20.7-13.4-33.1-13.3-1 0-2.1 0-3.2-.1-23.3-1.3-42.2-19.9-44.1-43.2-2.5-29.4 21.8-53.7 51.1-51.3 23.1 1.8 41.5 21 42.9 44.2z" />
    </g>
  </g>
</svg>