<svg width="1200" height="720" viewBox="0 0 1200 720" fill="none" xmlns="http://www.w3.org/2000/svg">
  <rect width="1200" height="720" fill="#F5F1E8"/>
  <rect x="88" y="500" width="1024" height="120" rx="24" fill="#D2B48C"/>
  <rect x="310" y="190" width="580" height="320" rx="20" fill="#1F2937"/>
  <rect x="340" y="220" width="520" height="250" rx="12" fill="#FFF9F0"/>
  <rect x="420" y="544" width="360" height="24" rx="12" fill="#8B5E3C"/>
  <rect x="520" y="566" width="160" height="16" rx="8" fill="#6B7280"/>
  <rect x="160" y="330" width="90" height="160" rx="16" fill="#374151"/>
  <rect x="952" y="290" width="92" height="200" rx="16" fill="#374151"/>
  <circle cx="998" cy="274" r="48" fill="#F59E0B"/>
  <circle cx="998" cy="274" r="26" fill="#FFF7D6"/>
  <rect x="460" y="270" width="280" height="24" rx="12" fill="#111827" fill-opacity="0.12"/>
  <rect x="460" y="314" width="180" height="18" rx="9" fill="#111827" fill-opacity="0.08"/>
  <rect x="460" y="350" width="240" height="18" rx="9" fill="#111827" fill-opacity="0.08"/>
  <rect x="460" y="386" width="200" height="18" rx="9" fill="#111827" fill-opacity="0.08"/>
</svg>
