<?xml version="1.0" encoding="UTF-8"?>
<svg xmlns="http://www.w3.org/2000/svg" xmlns:xlink="http://www.w3.org/1999/xlink" width="40px" height="40px" viewBox="0 0 40 40" version="1.1">
<g id="surface1">
<path style="fill-rule:nonzero;fill:rgb(56.862745%,11.764706%,100%);fill-opacity:1;stroke-width:1;stroke-linecap:butt;stroke-linejoin:miter;stroke:rgb(56.862745%,11.764706%,100%);stroke-opacity:1;stroke-miterlimit:4;" d="M 296.00293 10.05293 C 289.124609 10.523242 280.365039 11.405078 276.484961 12.051758 C 265.25625 13.933008 249.794727 16.93125 245.973437 17.930664 C 244.092187 18.459766 239.800586 19.517969 236.449609 20.399805 C 230.276758 21.92832 222.046289 24.45625 218.518945 25.925977 C 217.401953 26.396289 213.110352 28.042383 208.995117 29.570898 C 204.879883 31.099414 197.766406 34.038867 193.180859 36.155273 C 188.595312 38.27168 184.480078 39.976562 183.950977 39.976562 C 183.421875 39.976562 183.010352 40.446875 183.010352 40.975977 C 183.010352 41.563867 182.422461 41.975391 181.658203 41.975391 C 180.247266 41.975391 170.782227 47.442773 159.494727 54.791406 C 119.75332 80.599805 82.892578 120.693945 60.493945 162.492969 C 58.436328 166.373047 56.378711 169.95918 55.967187 170.488281 C 55.555664 171.076172 53.791992 174.897461 52.02832 179.012695 C 50.264648 183.12793 48.26582 187.831055 47.501562 189.477148 C 46.737305 191.123242 45.208789 195.179688 44.033008 198.471875 C 42.798437 201.822852 41.446289 205.408984 40.975977 206.525977 C 40.15293 208.407227 37.918945 215.755859 36.508008 220.988086 C 36.155273 222.399023 35.449805 225.10332 34.920703 226.98457 C 34.391602 228.924609 32.62793 237.096289 31.040625 245.20918 C 24.221094 279.424414 24.750195 324.515625 32.333984 361.023633 C 35.09707 374.133594 41.622656 395.944336 43.327539 397.649219 C 43.680273 398.060742 43.974219 399.001367 43.974219 399.765625 C 43.974219 400.529883 44.679688 402.705078 45.502734 404.586328 C 46.325781 406.467578 47.67793 409.700977 48.559766 411.758594 C 55.144141 427.455273 72.780859 457.849219 82.010742 469.313086 C 96.002539 486.773437 98.47168 489.595312 111.464062 502.528906 C 124.103711 515.050977 135.802734 525.280273 145.973242 532.511328 C 149.030273 534.686523 151.73457 536.685352 152.028516 536.979297 C 153.439453 538.625391 176.073242 552.558398 182.775195 555.909375 C 195.062109 562.082227 207.172656 567.608398 211.523047 568.960547 C 213.698242 569.666016 215.932227 570.606641 216.520117 570.959375 C 217.049219 571.370898 220.223828 572.429102 223.516016 573.428516 C 226.808203 574.369141 232.216797 576.015234 235.508984 577.014648 C 244.092187 579.660156 252.381445 581.600195 261.023438 582.952344 C 265.138672 583.657812 270.547266 584.598437 273.016406 585.06875 C 284.303906 587.302734 316.520312 588.360937 336.09707 587.185156 C 346.737891 586.538477 356.20293 585.833008 357.025977 585.656641 C 357.849023 585.480273 360.729687 585.009961 363.492773 584.598437 C 374.486328 582.893555 389.066016 579.777734 399.47168 576.838281 C 410.171289 573.840039 412.170117 573.193359 418.636914 570.371484 C 420.400586 569.607227 422.223047 569.019336 422.693359 569.019336 C 424.104297 569.019336 442.858008 560.553711 451.088477 556.20332 C 471.664648 545.386133 492.946289 530.394922 508.701758 515.638867 C 511.582422 512.93457 514.81582 510.112695 515.991602 509.289648 C 519.460156 506.879297 530.453711 493.475391 532.805273 488.831055 C 537.684766 479.130859 538.449023 475.133203 538.272656 461.494141 C 538.096289 443.916211 535.450781 434.333594 527.925781 423.516406 C 519.107422 410.876758 506.761719 402.352344 491.829297 398.472266 C 483.833984 396.355859 464.139648 396.061914 458.495898 397.943164 C 452.087891 400.05957 442.975586 404.292383 442.975586 405.174219 C 442.975586 405.644531 442.446484 405.997266 441.741016 405.997266 C 440.388867 405.997266 438.801562 407.349414 427.278906 418.166602 C 420.694531 424.339453 405.879687 435.979687 404.586328 435.979687 C 404.292383 435.979687 401.646875 437.508203 398.766211 439.271875 C 394.298242 442.09375 388.007812 445.268359 379.483398 449.089648 C 373.428125 451.852734 355.144727 457.026172 345.973633 458.554687 C 331.511523 461.023828 300.588477 461.082617 286.008789 458.613477 C 273.721875 456.555859 256.026367 451.029687 248.089844 446.738086 C 235.744141 440.036133 228.630664 435.626953 221.105664 429.983203 C 186.420117 403.82207 162.375391 366.84375 155.732227 329.512695 C 153.850977 318.871875 154.086133 279.835938 156.14375 268.019336 C 157.848633 258.201562 161.14082 245.738281 163.492383 240.506055 C 164.197852 238.859961 165.843945 235.038672 167.137305 231.981641 C 168.371875 228.983398 170.899805 223.86875 172.722266 220.635352 C 174.544727 217.460742 176.014453 214.638867 176.014453 214.403711 C 176.014453 212.346094 190.829297 194.121484 200.000391 185.00918 C 211.581836 173.368945 213.169141 171.958008 220.517773 166.490625 C 222.692969 164.844531 224.926953 163.139648 225.514844 162.669336 C 230.335547 158.67168 252.440234 147.736914 262.022852 144.562305 C 266.667187 143.033789 271.429102 141.387695 272.487305 140.976172 C 279.365625 138.271875 311.817187 134.979687 320.870703 136.09668 C 340.565039 138.56582 356.967187 135.273633 369.077734 126.337695 C 382.893164 116.167187 391.94668 103.821484 394.944922 91.005469 C 396.767383 83.245312 397.002539 59.494531 395.238867 53.556836 C 394.650977 51.381641 393.063672 47.560352 391.829102 45.091211 C 389.124805 39.741406 374.133594 23.927148 369.312891 21.34043 C 367.49043 20.341016 366.020703 19.282812 366.020703 18.930078 C 366.020703 18.048242 357.202344 13.874219 353.145898 12.816016 C 348.383984 11.581445 321.105859 9.053516 313.992383 9.171094 C 310.994141 9.229883 302.88125 9.641406 296.00293 10.05293 " transform="matrix(0.0664452,0,0,0.0664452,0,0)"/>
<path style="fill-rule:nonzero;fill:rgb(73.72549%,0%,100%);fill-opacity:1;stroke-width:1;stroke-linecap:butt;stroke-linejoin:miter;stroke:rgb(73.72549%,0%,100%);stroke-opacity:1;stroke-miterlimit:4;" d="M 477.484766 38.624414 C 471.253125 40.094141 461.258984 44.562109 457.084961 47.67793 C 452.029102 51.44043 439.683398 63.668555 436.567578 68.018945 C 430.394727 76.543359 426.514648 85.067773 424.51582 94.532812 C 422.63457 103.46875 422.63457 107.290039 424.574609 116.813867 C 430.688672 146.443555 457.084961 168.900977 486.00918 169.136133 C 498.942773 169.194922 513.404883 164.962109 523.163867 158.318945 C 532.39375 151.969727 544.504297 138.154297 549.325 128.512891 C 553.910547 119.224219 555.380273 111.405273 554.792383 98.765625 C 553.792969 78.071875 543.563672 59.612109 526.75 48.148242 C 512.699414 38.565625 493.299023 34.803125 477.484766 38.624414 " transform="matrix(0.0664452,0,0,0.0664452,0,0)"/>
</g>
</svg>
